<svg data-v-423bf9ae="" xmlns="http://www.w3.org/2000/svg" viewBox="0 0 413 90" class="iconLeft"><!----><!----><!----><g data-v-423bf9ae="" id="5f24f80e-4528-4ede-970c-dbea0ecd323e" fill="black" transform="matrix(6.681514107635415,0,0,6.681514107635415,173.31388332758826,-19.20935194329188)"><path d="M10.29 7L7.62 12.42L6.51 10.22L8.15 7L6.80 7L5.87 9.02L4.94 7L3.60 7L5.22 10.23L4.14 12.42L1.46 7L0.06 7L3.61 14.03L4.61 14.03L5.87 11.45L7.14 14.03L8.12 14.03L11.69 7ZM18.86 14L16.13 10.50L18.82 7L17.25 7L15.36 9.56L13.45 7L11.89 7L14.59 10.50L11.86 14L13.48 14L15.36 11.45L17.22 14ZM24.81 7L24.81 8.12C24.26 7.39 23.45 6.90 22.41 6.90C20.47 6.90 19.14 8.48 19.14 10.50C19.14 12.52 20.47 14.10 22.41 14.10C23.45 14.10 24.26 13.61 24.81 12.88L24.81 14L26.12 14L26.12 7ZM22.64 12.82C21.38 12.82 20.50 11.79 20.50 10.50C20.50 9.23 21.38 8.19 22.64 8.19C23.90 8.19 24.81 9.27 24.81 10.50C24.81 11.73 23.90 12.82 22.64 12.82ZM29.53 8.20L29.53 7L28.21 7L28.21 14L29.53 14L29.53 10.23L29.54 10.29C29.54 8.78 30.56 8.25 31.56 8.41L31.56 6.86C30.62 6.86 29.90 7.49 29.53 8.20ZM35.84 7L34.40 7L34.40 5.12L33.08 5.12L33.08 7L32.19 7L32.19 8.26L33.08 8.26L33.08 14L34.40 14L34.40 8.26L35.84 8.26Z"></path></g><!----><g data-v-423bf9ae="" id="11b68159-df2e-4ac1-9fa0-a906eee93b73" transform="matrix(4.803586662404586,0,0,4.803586662404586,0.14261340152661717,-31.22538662899096)" stroke="none" fill="black"><path d="M16 19.586l7.496-12.954H8.504zM7.496 12.414L0 25.368h14.992zM24.504 12.414l-7.496 12.954H32z"></path></g><!----></svg>