<svg data-v-fde0c5aa="" xmlns="http://www.w3.org/2000/svg" viewBox="0 0 300 300" class="iconLeft"><!----><defs data-v-fde0c5aa=""><!----></defs><rect data-v-fde0c5aa="" fill="#F2EDED" x="0" y="0" width="300px" height="300px" class="logo-background-square"></rect><defs data-v-fde0c5aa=""><!----></defs><g data-v-fde0c5aa="" id="7cc8aae8-6d12-4a71-97b9-be41a1c12ef7" fill="#362120" transform="matrix(3.5212478867715826,0,0,3.5212478867715826,133.79848002810948,116.16080733798779)"><path d="M10.29 7L7.62 12.42L6.51 10.22L8.15 7L6.80 7L5.87 9.02L4.94 7L3.60 7L5.22 10.23L4.14 12.42L1.46 7L0.06 7L3.61 14.03L4.61 14.03L5.87 11.45L7.14 14.03L8.12 14.03L11.69 7ZM18.86 14L16.13 10.50L18.82 7L17.25 7L15.36 9.56L13.45 7L11.89 7L14.59 10.50L11.86 14L13.48 14L15.36 11.45L17.22 14ZM24.81 7L24.81 8.12C24.26 7.39 23.45 6.90 22.41 6.90C20.47 6.90 19.14 8.48 19.14 10.50C19.14 12.52 20.47 14.10 22.41 14.10C23.45 14.10 24.26 13.61 24.81 12.88L24.81 14L26.12 14L26.12 7ZM22.64 12.82C21.38 12.82 20.50 11.79 20.50 10.50C20.50 9.23 21.38 8.19 22.64 8.19C23.90 8.19 24.81 9.27 24.81 10.50C24.81 11.73 23.90 12.82 22.64 12.82ZM29.53 8.20L29.53 7L28.21 7L28.21 14L29.53 14L29.53 10.23L29.54 10.29C29.54 8.78 30.56 8.25 31.56 8.41L31.56 6.86C30.62 6.86 29.90 7.49 29.53 8.20ZM35.84 7L34.40 7L34.40 5.12L33.08 5.12L33.08 7L32.19 7L32.19 8.26L33.08 8.26L33.08 14L34.40 14L34.40 8.26L35.84 8.26Z"></path></g><defs data-v-fde0c5aa=""><linearGradient data-v-fde0c5aa="" gradientTransform="rotate(25)" id="566bc73b-1659-4f12-b088-dad51da53fe9" x1="0%" y1="0%" x2="100%" y2="0%"><stop data-v-fde0c5aa="" offset="0%" stop-color="#5A0E1D" stop-opacity="1"></stop><stop data-v-fde0c5aa="" offset="100%" stop-color="#B39984" stop-opacity="1"></stop></linearGradient></defs><g data-v-fde0c5aa="" id="04971935-d74d-4a3f-866b-707a69cf8186" stroke="none" fill="url(#566bc73b-1659-4f12-b088-dad51da53fe9)" transform="matrix(2.531554840928471,0,0,2.531554840928471,40,109.49512254514445)"><path d="M16 19.586l7.496-12.954H8.504zM7.496 12.414L0 25.368h14.992zM24.504 12.414l-7.496 12.954H32z"></path></g><!----></svg>